<svg xmlns="http://www.w3.org/2000/svg" viewBox="0 0 512 512">
  <circle cx="256" cy="256" r="256" fill="#0057FE"/>
  <path d="M256,0C114.84,0,0,114.84,0,256S114.84,512,256,512S512,397.16,512,256S397.16,0,256,0z M256,470.49
    c-118.46,0-214.49-96.03-214.49-214.49S137.54,41.51,256,41.51S470.49,137.54,470.49,256S374.46,470.49,256,470.49z" fill="#FFFFFF"/>
  <path d="M256,41.51c-118.46,0-214.49,96.03-214.49,214.49S137.54,470.49,256,470.49S470.49,374.46,470.49,256
    S374.46,41.51,256,41.51z M256,429.02c-95.56,0-173.02-77.46-173.02-173.02S160.44,82.98,256,82.98S429.02,160.44,429.02,256
    S351.56,429.02,256,429.02z" fill="#0057FE"/>
  <path d="M256,82.98c-95.56,0-173.02,77.46-173.02,173.02S160.44,429.02,256,429.02S429.02,351.56,429.02,256
    S351.56,82.98,256,82.98z M256,387.55c-72.65,0-131.55-58.9-131.55-131.55S183.35,124.45,256,124.45S387.55,183.35,387.55,256
    S328.65,387.55,256,387.55z" fill="#FFFFFF"/>
</svg> 